<svg height="61" width="230">
  <text x="51" y="24" fill="#1e608" font-size="2em" font-weight="900"><tspan x="51" y="24"> WAIST </tspan><tspan x="51" y="54"> PLAYBOOK </tspan></text>

  <path xmlns="http://www.w3.org/2000/svg" d="M40.573 43.85H37.43c-.092 0-.18.014-.267.027V9.16a.86.86 0 00-.677-.84l-22.7-4.883h26.786V43.85zm-5.123 8.097l-4.3-.926v-35.59c0-.654-.37-1.251-.956-1.54L11.71 4.746l23.74 5.106v42.094zm-7.727 4.571L3.427 44.501V4.48L27.723 16.5v40.018zM42.286 0H1.714l-.026.002a1.694 1.694 0 00-.301.03L1.33.048a1.723 1.723 0 00-.244.075c-.02.008-.039.014-.058.023a1.67 1.67 0 00-.22.114L.78.28C.759.294.739.309.72.323.654.37.591.422.533.477.52.491.504.503.491.517a1.772 1.772 0 00-.181.22c-.014.02-.026.04-.038.06a1.7 1.7 0 00-.118.217l-.023.05a1.7 1.7 0 00-.1.348c-.018.1-.031.202-.031.306v43.85c0 .655.37 1.252.956 1.542l27.722 13.713a1.71 1.71 0 001.663-.082 1.72 1.72 0 00.809-1.46V52.78l4.977 1.07a.845.845 0 00.718-.171.86.86 0 00.32-.669V47.26c.087.014.174.027.266.027h4.855c.947 0 1.714-.77 1.714-1.718V1.719C44 .768 43.233 0 42.286 0z" fill="#FECC0B"/>
  Sorry, your browser does not support inline SVG.
</svg>
